<mxfile host="Electron" modified="2024-02-29T04:03:55.531Z" agent="Mozilla/5.0 (Windows NT 10.0; Win64; x64) AppleWebKit/537.36 (KHTML, like Gecko) draw.io/23.1.5 Chrome/120.0.6099.109 Electron/28.1.0 Safari/537.36" etag="4aWSCbMlizmfJa03S4P5" version="23.1.5" type="device">
  <diagram name="Page-1" id="2uE6KFjSqUaOM7JCOi1Q">
    <mxGraphModel dx="1050" dy="621" grid="1" gridSize="10" guides="1" tooltips="1" connect="1" arrows="1" fold="1" page="1" pageScale="1" pageWidth="850" pageHeight="1100" math="0" shadow="0">
      <root>
        <mxCell id="0" />
        <mxCell id="1" parent="0" />
        <mxCell id="u0pqDIgcjmRj2BkZ3sN5-1" value="Nhân Viên" style="whiteSpace=wrap;html=1;align=center;" parent="1" vertex="1">
          <mxGeometry x="400" y="280" width="100" height="40" as="geometry" />
        </mxCell>
        <mxCell id="u0pqDIgcjmRj2BkZ3sN5-2" value="Đĩa&amp;nbsp;" style="whiteSpace=wrap;html=1;align=center;" parent="1" vertex="1">
          <mxGeometry x="120" y="400" width="100" height="40" as="geometry" />
        </mxCell>
        <mxCell id="u0pqDIgcjmRj2BkZ3sN5-3" value="Khách hàng" style="whiteSpace=wrap;html=1;align=center;" parent="1" vertex="1">
          <mxGeometry x="1040" y="710" width="100" height="40" as="geometry" />
        </mxCell>
        <mxCell id="u0pqDIgcjmRj2BkZ3sN5-4" value="Tài khoản" style="whiteSpace=wrap;html=1;align=center;" parent="1" vertex="1">
          <mxGeometry x="400" y="110" width="100" height="40" as="geometry" />
        </mxCell>
        <mxCell id="u0pqDIgcjmRj2BkZ3sN5-7" style="edgeStyle=orthogonalEdgeStyle;rounded=0;orthogonalLoop=1;jettySize=auto;html=1;exitX=0.5;exitY=1;exitDx=0;exitDy=0;entryX=0.5;entryY=0;entryDx=0;entryDy=0;endArrow=ERmandOne;endFill=0;" parent="1" source="u0pqDIgcjmRj2BkZ3sN5-5" target="u0pqDIgcjmRj2BkZ3sN5-1" edge="1">
          <mxGeometry relative="1" as="geometry" />
        </mxCell>
        <mxCell id="u0pqDIgcjmRj2BkZ3sN5-8" style="edgeStyle=orthogonalEdgeStyle;rounded=0;orthogonalLoop=1;jettySize=auto;html=1;exitX=0.5;exitY=0;exitDx=0;exitDy=0;entryX=0.5;entryY=1;entryDx=0;entryDy=0;endArrow=ERmandOne;endFill=0;" parent="1" source="u0pqDIgcjmRj2BkZ3sN5-5" target="u0pqDIgcjmRj2BkZ3sN5-4" edge="1">
          <mxGeometry relative="1" as="geometry" />
        </mxCell>
        <mxCell id="u0pqDIgcjmRj2BkZ3sN5-5" value="Có" style="shape=rhombus;perimeter=rhombusPerimeter;whiteSpace=wrap;html=1;align=center;" parent="1" vertex="1">
          <mxGeometry x="415" y="190" width="70" height="30" as="geometry" />
        </mxCell>
        <mxCell id="u0pqDIgcjmRj2BkZ3sN5-9" value="Nhà cung cấp" style="whiteSpace=wrap;html=1;align=center;" parent="1" vertex="1">
          <mxGeometry x="120" y="110" width="100" height="40" as="geometry" />
        </mxCell>
        <mxCell id="u0pqDIgcjmRj2BkZ3sN5-12" style="edgeStyle=orthogonalEdgeStyle;rounded=0;orthogonalLoop=1;jettySize=auto;html=1;exitX=0.5;exitY=0;exitDx=0;exitDy=0;entryX=1;entryY=0.5;entryDx=0;entryDy=0;endArrow=ERoneToMany;endFill=0;" parent="1" source="u0pqDIgcjmRj2BkZ3sN5-10" target="u0pqDIgcjmRj2BkZ3sN5-9" edge="1">
          <mxGeometry relative="1" as="geometry" />
        </mxCell>
        <mxCell id="u0pqDIgcjmRj2BkZ3sN5-13" style="edgeStyle=orthogonalEdgeStyle;rounded=0;orthogonalLoop=1;jettySize=auto;html=1;exitX=0;exitY=0.5;exitDx=0;exitDy=0;entryX=0.5;entryY=0;entryDx=0;entryDy=0;endArrow=ERoneToMany;endFill=0;" parent="1" source="u0pqDIgcjmRj2BkZ3sN5-10" target="u0pqDIgcjmRj2BkZ3sN5-2" edge="1">
          <mxGeometry relative="1" as="geometry" />
        </mxCell>
        <mxCell id="u0pqDIgcjmRj2BkZ3sN5-10" value="CT_Nhập đĩa" style="shape=associativeEntity;whiteSpace=wrap;html=1;align=center;" parent="1" vertex="1">
          <mxGeometry x="230" y="230" width="90" height="40" as="geometry" />
        </mxCell>
        <mxCell id="u0pqDIgcjmRj2BkZ3sN5-11" style="edgeStyle=orthogonalEdgeStyle;rounded=0;orthogonalLoop=1;jettySize=auto;html=1;exitX=1;exitY=0.5;exitDx=0;exitDy=0;entryX=0.34;entryY=0;entryDx=0;entryDy=0;entryPerimeter=0;endArrow=ERmandOne;endFill=0;" parent="1" source="u0pqDIgcjmRj2BkZ3sN5-10" target="u0pqDIgcjmRj2BkZ3sN5-1" edge="1">
          <mxGeometry relative="1" as="geometry" />
        </mxCell>
        <mxCell id="u0pqDIgcjmRj2BkZ3sN5-22" value="Phiếu thuê" style="whiteSpace=wrap;html=1;align=center;" parent="1" vertex="1">
          <mxGeometry x="1040" y="280" width="100" height="40" as="geometry" />
        </mxCell>
        <mxCell id="u0pqDIgcjmRj2BkZ3sN5-24" style="edgeStyle=orthogonalEdgeStyle;rounded=0;orthogonalLoop=1;jettySize=auto;html=1;exitX=0;exitY=0.5;exitDx=0;exitDy=0;entryX=1;entryY=0.5;entryDx=0;entryDy=0;endArrow=ERmandOne;endFill=0;" parent="1" source="T8XWc761dDylc2NOv8nj-16" target="u0pqDIgcjmRj2BkZ3sN5-1" edge="1">
          <mxGeometry relative="1" as="geometry">
            <mxPoint x="650" y="300" as="sourcePoint" />
          </mxGeometry>
        </mxCell>
        <mxCell id="u0pqDIgcjmRj2BkZ3sN5-25" style="edgeStyle=orthogonalEdgeStyle;rounded=0;orthogonalLoop=1;jettySize=auto;html=1;exitX=1;exitY=0.5;exitDx=0;exitDy=0;endArrow=ERoneToMany;endFill=0;" parent="1" source="T8XWc761dDylc2NOv8nj-19" target="u0pqDIgcjmRj2BkZ3sN5-22" edge="1">
          <mxGeometry relative="1" as="geometry">
            <mxPoint x="990" y="570" as="sourcePoint" />
          </mxGeometry>
        </mxCell>
        <mxCell id="u0pqDIgcjmRj2BkZ3sN5-27" style="edgeStyle=orthogonalEdgeStyle;rounded=0;orthogonalLoop=1;jettySize=auto;html=1;exitX=0;exitY=0.5;exitDx=0;exitDy=0;entryX=1;entryY=0.5;entryDx=0;entryDy=0;endArrow=ERmandOne;endFill=0;" parent="1" source="u0pqDIgcjmRj2BkZ3sN5-53" target="u0pqDIgcjmRj2BkZ3sN5-2" edge="1">
          <mxGeometry relative="1" as="geometry">
            <mxPoint x="645" y="420" as="sourcePoint" />
          </mxGeometry>
        </mxCell>
        <mxCell id="u0pqDIgcjmRj2BkZ3sN5-28" style="edgeStyle=orthogonalEdgeStyle;rounded=0;orthogonalLoop=1;jettySize=auto;html=1;exitX=1;exitY=0.5;exitDx=0;exitDy=0;entryX=0.25;entryY=1;entryDx=0;entryDy=0;endArrow=ERoneToMany;endFill=0;" parent="1" source="u0pqDIgcjmRj2BkZ3sN5-53" target="u0pqDIgcjmRj2BkZ3sN5-22" edge="1">
          <mxGeometry relative="1" as="geometry">
            <mxPoint x="735" y="420" as="sourcePoint" />
          </mxGeometry>
        </mxCell>
        <mxCell id="u0pqDIgcjmRj2BkZ3sN5-30" style="edgeStyle=orthogonalEdgeStyle;rounded=0;orthogonalLoop=1;jettySize=auto;html=1;exitX=0.5;exitY=1;exitDx=0;exitDy=0;entryX=0.5;entryY=0;entryDx=0;entryDy=0;endArrow=ERmandOne;endFill=0;" parent="1" source="u0pqDIgcjmRj2BkZ3sN5-29" target="u0pqDIgcjmRj2BkZ3sN5-3" edge="1">
          <mxGeometry relative="1" as="geometry" />
        </mxCell>
        <mxCell id="u0pqDIgcjmRj2BkZ3sN5-31" style="edgeStyle=orthogonalEdgeStyle;rounded=0;orthogonalLoop=1;jettySize=auto;html=1;exitX=0.5;exitY=0;exitDx=0;exitDy=0;entryX=0.5;entryY=1;entryDx=0;entryDy=0;endArrow=ERoneToMany;endFill=0;" parent="1" source="u0pqDIgcjmRj2BkZ3sN5-29" target="u0pqDIgcjmRj2BkZ3sN5-22" edge="1">
          <mxGeometry relative="1" as="geometry" />
        </mxCell>
        <mxCell id="u0pqDIgcjmRj2BkZ3sN5-29" value="Có" style="shape=rhombus;perimeter=rhombusPerimeter;whiteSpace=wrap;html=1;align=center;" parent="1" vertex="1">
          <mxGeometry x="1040" y="440" width="100" height="50" as="geometry" />
        </mxCell>
        <mxCell id="u0pqDIgcjmRj2BkZ3sN5-32" value="Phiếu trả" style="whiteSpace=wrap;html=1;align=center;" parent="1" vertex="1">
          <mxGeometry x="400" y="710" width="100" height="40" as="geometry" />
        </mxCell>
        <mxCell id="u0pqDIgcjmRj2BkZ3sN5-34" style="edgeStyle=orthogonalEdgeStyle;rounded=0;orthogonalLoop=1;jettySize=auto;html=1;exitX=0.5;exitY=0;exitDx=0;exitDy=0;entryX=0.5;entryY=1;entryDx=0;entryDy=0;endArrow=ERmandOne;endFill=0;" parent="1" source="u0pqDIgcjmRj2BkZ3sN5-33" target="u0pqDIgcjmRj2BkZ3sN5-1" edge="1">
          <mxGeometry relative="1" as="geometry" />
        </mxCell>
        <mxCell id="T8XWc761dDylc2NOv8nj-11" style="edgeStyle=orthogonalEdgeStyle;rounded=0;orthogonalLoop=1;jettySize=auto;html=1;exitX=0.5;exitY=1;exitDx=0;exitDy=0;entryX=0.5;entryY=0;entryDx=0;entryDy=0;endArrow=ERoneToMany;endFill=0;" parent="1" source="u0pqDIgcjmRj2BkZ3sN5-33" target="u0pqDIgcjmRj2BkZ3sN5-32" edge="1">
          <mxGeometry relative="1" as="geometry">
            <mxPoint x="450" y="510" as="targetPoint" />
          </mxGeometry>
        </mxCell>
        <mxCell id="u0pqDIgcjmRj2BkZ3sN5-33" value="Tạo" style="shape=rhombus;perimeter=rhombusPerimeter;whiteSpace=wrap;html=1;align=center;" parent="1" vertex="1">
          <mxGeometry x="410" y="510" width="80" height="40" as="geometry" />
        </mxCell>
        <mxCell id="u0pqDIgcjmRj2BkZ3sN5-37" style="edgeStyle=orthogonalEdgeStyle;rounded=0;orthogonalLoop=1;jettySize=auto;html=1;exitX=0;exitY=0.5;exitDx=0;exitDy=0;entryX=0.5;entryY=1;entryDx=0;entryDy=0;endArrow=ERmandOne;endFill=0;" parent="1" source="u0pqDIgcjmRj2BkZ3sN5-36" target="u0pqDIgcjmRj2BkZ3sN5-32" edge="1">
          <mxGeometry relative="1" as="geometry" />
        </mxCell>
        <mxCell id="V5PTFw7z7PmjXfzqSf7Q-5" style="edgeStyle=orthogonalEdgeStyle;rounded=0;orthogonalLoop=1;jettySize=auto;html=1;exitX=1;exitY=0.5;exitDx=0;exitDy=0;entryX=0;entryY=0.5;entryDx=0;entryDy=0;endArrow=ERoneToMany;endFill=0;" edge="1" parent="1" source="u0pqDIgcjmRj2BkZ3sN5-36" target="V5PTFw7z7PmjXfzqSf7Q-1">
          <mxGeometry relative="1" as="geometry" />
        </mxCell>
        <mxCell id="u0pqDIgcjmRj2BkZ3sN5-36" value="thuộc" style="shape=rhombus;perimeter=rhombusPerimeter;whiteSpace=wrap;html=1;align=center;" parent="1" vertex="1">
          <mxGeometry x="560" y="780" width="80" height="40" as="geometry" />
        </mxCell>
        <mxCell id="u0pqDIgcjmRj2BkZ3sN5-43" style="edgeStyle=orthogonalEdgeStyle;rounded=0;orthogonalLoop=1;jettySize=auto;html=1;exitX=0.5;exitY=0;exitDx=0;exitDy=0;entryX=0;entryY=0.5;entryDx=0;entryDy=0;endArrow=ERmandOne;endFill=0;" parent="1" source="u0pqDIgcjmRj2BkZ3sN5-42" target="u0pqDIgcjmRj2BkZ3sN5-1" edge="1">
          <mxGeometry relative="1" as="geometry" />
        </mxCell>
        <mxCell id="T8XWc761dDylc2NOv8nj-2" style="edgeStyle=orthogonalEdgeStyle;rounded=0;orthogonalLoop=1;jettySize=auto;html=1;exitX=0.5;exitY=1;exitDx=0;exitDy=0;entryX=0;entryY=0.5;entryDx=0;entryDy=0;endArrow=ERoneToMany;endFill=0;" parent="1" source="u0pqDIgcjmRj2BkZ3sN5-42" target="T8XWc761dDylc2NOv8nj-1" edge="1">
          <mxGeometry relative="1" as="geometry" />
        </mxCell>
        <mxCell id="u0pqDIgcjmRj2BkZ3sN5-42" value="Tạo" style="shape=rhombus;perimeter=rhombusPerimeter;whiteSpace=wrap;html=1;align=center;" parent="1" vertex="1">
          <mxGeometry x="280" y="430" width="80" height="40" as="geometry" />
        </mxCell>
        <mxCell id="u0pqDIgcjmRj2BkZ3sN5-46" value="CT_Cập nhật" style="whiteSpace=wrap;html=1;align=center;" parent="1" vertex="1">
          <mxGeometry x="260" y="810" width="100" height="40" as="geometry" />
        </mxCell>
        <mxCell id="u0pqDIgcjmRj2BkZ3sN5-48" style="edgeStyle=orthogonalEdgeStyle;rounded=0;orthogonalLoop=1;jettySize=auto;html=1;exitX=0.5;exitY=0;exitDx=0;exitDy=0;entryX=1;entryY=0.75;entryDx=0;entryDy=0;endArrow=ERmandOne;endFill=0;" parent="1" source="u0pqDIgcjmRj2BkZ3sN5-47" target="u0pqDIgcjmRj2BkZ3sN5-1" edge="1">
          <mxGeometry relative="1" as="geometry" />
        </mxCell>
        <mxCell id="u0pqDIgcjmRj2BkZ3sN5-49" style="edgeStyle=orthogonalEdgeStyle;rounded=0;orthogonalLoop=1;jettySize=auto;html=1;exitX=0.5;exitY=1;exitDx=0;exitDy=0;entryX=1;entryY=0.5;entryDx=0;entryDy=0;endArrow=ERoneToMany;endFill=0;" parent="1" source="u0pqDIgcjmRj2BkZ3sN5-47" target="u0pqDIgcjmRj2BkZ3sN5-46" edge="1">
          <mxGeometry relative="1" as="geometry" />
        </mxCell>
        <mxCell id="u0pqDIgcjmRj2BkZ3sN5-47" value="Tạo" style="shape=rhombus;perimeter=rhombusPerimeter;whiteSpace=wrap;html=1;align=center;" parent="1" vertex="1">
          <mxGeometry x="520" y="510" width="70" height="40" as="geometry" />
        </mxCell>
        <mxCell id="u0pqDIgcjmRj2BkZ3sN5-51" style="edgeStyle=orthogonalEdgeStyle;rounded=0;orthogonalLoop=1;jettySize=auto;html=1;exitX=0.5;exitY=1;exitDx=0;exitDy=0;entryX=0;entryY=0.5;entryDx=0;entryDy=0;endArrow=ERoneToMany;endFill=0;" parent="1" source="u0pqDIgcjmRj2BkZ3sN5-50" target="u0pqDIgcjmRj2BkZ3sN5-46" edge="1">
          <mxGeometry relative="1" as="geometry" />
        </mxCell>
        <mxCell id="u0pqDIgcjmRj2BkZ3sN5-52" style="edgeStyle=orthogonalEdgeStyle;rounded=0;orthogonalLoop=1;jettySize=auto;html=1;exitX=0.5;exitY=0;exitDx=0;exitDy=0;entryX=0.5;entryY=1;entryDx=0;entryDy=0;endArrow=ERmandOne;endFill=0;" parent="1" source="u0pqDIgcjmRj2BkZ3sN5-50" target="u0pqDIgcjmRj2BkZ3sN5-2" edge="1">
          <mxGeometry relative="1" as="geometry" />
        </mxCell>
        <mxCell id="u0pqDIgcjmRj2BkZ3sN5-50" value="cập nhật" style="shape=rhombus;perimeter=rhombusPerimeter;whiteSpace=wrap;html=1;align=center;" parent="1" vertex="1">
          <mxGeometry x="135" y="520" width="70" height="40" as="geometry" />
        </mxCell>
        <mxCell id="u0pqDIgcjmRj2BkZ3sN5-53" value="Thêm" style="shape=rhombus;perimeter=rhombusPerimeter;whiteSpace=wrap;html=1;align=center;" parent="1" vertex="1">
          <mxGeometry x="640" y="390" width="120" height="60" as="geometry" />
        </mxCell>
        <mxCell id="T8XWc761dDylc2NOv8nj-1" value="CT_Thêm khách hàng" style="whiteSpace=wrap;html=1;align=center;" parent="1" vertex="1">
          <mxGeometry x="420" y="880" width="100" height="40" as="geometry" />
        </mxCell>
        <mxCell id="T8XWc761dDylc2NOv8nj-4" style="edgeStyle=orthogonalEdgeStyle;rounded=0;orthogonalLoop=1;jettySize=auto;html=1;exitX=0;exitY=0.5;exitDx=0;exitDy=0;entryX=1;entryY=0.5;entryDx=0;entryDy=0;endArrow=ERoneToMany;endFill=0;" parent="1" source="T8XWc761dDylc2NOv8nj-3" target="T8XWc761dDylc2NOv8nj-1" edge="1">
          <mxGeometry relative="1" as="geometry" />
        </mxCell>
        <mxCell id="T8XWc761dDylc2NOv8nj-5" style="edgeStyle=orthogonalEdgeStyle;rounded=0;orthogonalLoop=1;jettySize=auto;html=1;exitX=1;exitY=0.5;exitDx=0;exitDy=0;entryX=0.5;entryY=1;entryDx=0;entryDy=0;endArrow=ERmandOne;endFill=0;" parent="1" source="T8XWc761dDylc2NOv8nj-3" target="u0pqDIgcjmRj2BkZ3sN5-3" edge="1">
          <mxGeometry relative="1" as="geometry" />
        </mxCell>
        <mxCell id="T8XWc761dDylc2NOv8nj-3" value="cập nhật" style="shape=rhombus;perimeter=rhombusPerimeter;whiteSpace=wrap;html=1;align=center;" parent="1" vertex="1">
          <mxGeometry x="650" y="880" width="80" height="40" as="geometry" />
        </mxCell>
        <mxCell id="T8XWc761dDylc2NOv8nj-6" value="Hóa đơn" style="whiteSpace=wrap;html=1;align=center;" parent="1" vertex="1">
          <mxGeometry x="740" y="710" width="100" height="40" as="geometry" />
        </mxCell>
        <mxCell id="T8XWc761dDylc2NOv8nj-8" style="edgeStyle=orthogonalEdgeStyle;rounded=0;orthogonalLoop=1;jettySize=auto;html=1;exitX=0;exitY=0.5;exitDx=0;exitDy=0;entryX=1;entryY=0.5;entryDx=0;entryDy=0;endArrow=ERoneToMany;endFill=0;" parent="1" source="T8XWc761dDylc2NOv8nj-7" target="u0pqDIgcjmRj2BkZ3sN5-32" edge="1">
          <mxGeometry relative="1" as="geometry" />
        </mxCell>
        <mxCell id="T8XWc761dDylc2NOv8nj-9" style="edgeStyle=orthogonalEdgeStyle;rounded=0;orthogonalLoop=1;jettySize=auto;html=1;exitX=1;exitY=0.5;exitDx=0;exitDy=0;entryX=0;entryY=0.5;entryDx=0;entryDy=0;endArrow=ERmandOne;endFill=0;" parent="1" source="T8XWc761dDylc2NOv8nj-7" target="T8XWc761dDylc2NOv8nj-6" edge="1">
          <mxGeometry relative="1" as="geometry" />
        </mxCell>
        <mxCell id="T8XWc761dDylc2NOv8nj-7" value="Xuất" style="shape=rhombus;perimeter=rhombusPerimeter;whiteSpace=wrap;html=1;align=center;" parent="1" vertex="1">
          <mxGeometry x="570" y="710" width="80" height="40" as="geometry" />
        </mxCell>
        <mxCell id="T8XWc761dDylc2NOv8nj-15" style="edgeStyle=orthogonalEdgeStyle;rounded=0;orthogonalLoop=1;jettySize=auto;html=1;exitX=1;exitY=0.5;exitDx=0;exitDy=0;entryX=0;entryY=0.5;entryDx=0;entryDy=0;endArrow=ERoneToMany;endFill=0;" parent="1" source="T8XWc761dDylc2NOv8nj-16" target="T8XWc761dDylc2NOv8nj-17" edge="1">
          <mxGeometry relative="1" as="geometry" />
        </mxCell>
        <mxCell id="T8XWc761dDylc2NOv8nj-16" value="Tạo" style="shape=rhombus;perimeter=rhombusPerimeter;whiteSpace=wrap;html=1;align=center;" parent="1" vertex="1">
          <mxGeometry x="590" y="280" width="80" height="40" as="geometry" />
        </mxCell>
        <mxCell id="T8XWc761dDylc2NOv8nj-17" value="CT_Phiếu thuê" style="whiteSpace=wrap;html=1;align=center;" parent="1" vertex="1">
          <mxGeometry x="710" y="280" width="100" height="40" as="geometry" />
        </mxCell>
        <mxCell id="T8XWc761dDylc2NOv8nj-18" style="edgeStyle=orthogonalEdgeStyle;rounded=0;orthogonalLoop=1;jettySize=auto;html=1;entryX=1;entryY=0.5;entryDx=0;entryDy=0;endArrow=ERoneToMany;endFill=0;" parent="1" source="T8XWc761dDylc2NOv8nj-19" target="T8XWc761dDylc2NOv8nj-17" edge="1">
          <mxGeometry relative="1" as="geometry" />
        </mxCell>
        <mxCell id="T8XWc761dDylc2NOv8nj-19" value="thuộc" style="shape=rhombus;perimeter=rhombusPerimeter;whiteSpace=wrap;html=1;align=center;" parent="1" vertex="1">
          <mxGeometry x="860" y="280" width="80" height="40" as="geometry" />
        </mxCell>
        <mxCell id="V5PTFw7z7PmjXfzqSf7Q-1" value="CT_Phiếu trả" style="whiteSpace=wrap;html=1;align=center;" vertex="1" parent="1">
          <mxGeometry x="740" y="780" width="100" height="40" as="geometry" />
        </mxCell>
        <mxCell id="V5PTFw7z7PmjXfzqSf7Q-6" style="edgeStyle=orthogonalEdgeStyle;rounded=0;orthogonalLoop=1;jettySize=auto;html=1;exitX=0.5;exitY=1;exitDx=0;exitDy=0;entryX=1;entryY=0.5;entryDx=0;entryDy=0;endArrow=ERoneToMany;endFill=0;" edge="1" parent="1" source="V5PTFw7z7PmjXfzqSf7Q-3" target="V5PTFw7z7PmjXfzqSf7Q-1">
          <mxGeometry relative="1" as="geometry" />
        </mxCell>
        <mxCell id="V5PTFw7z7PmjXfzqSf7Q-7" style="edgeStyle=orthogonalEdgeStyle;rounded=0;orthogonalLoop=1;jettySize=auto;html=1;exitX=0.5;exitY=0;exitDx=0;exitDy=0;entryX=1;entryY=0.5;entryDx=0;entryDy=0;endArrow=ERmandOne;endFill=0;" edge="1" parent="1" source="V5PTFw7z7PmjXfzqSf7Q-3" target="u0pqDIgcjmRj2BkZ3sN5-22">
          <mxGeometry relative="1" as="geometry" />
        </mxCell>
        <mxCell id="V5PTFw7z7PmjXfzqSf7Q-3" value="trả" style="shape=rhombus;perimeter=rhombusPerimeter;whiteSpace=wrap;html=1;align=center;" vertex="1" parent="1">
          <mxGeometry x="1120" y="560" width="80" height="40" as="geometry" />
        </mxCell>
      </root>
    </mxGraphModel>
  </diagram>
</mxfile>
